# This file uses meters as units for non-parametric coordinates.

mtllib backgroundWallPlane.mtl
g default
v -198.814001 -50.000000 1.544259
v 1.185999 -50.000000 1.544259
v 201.185999 -50.000000 1.544259
v -198.814001 50.000000 1.544259
v 1.185999 50.000000 1.544259
v 201.185999 50.000000 1.544259
vt 0.000000 0.500000
vt 1.000000 0.500000
vt 1.000000 0.000000
vt 0.000000 1.000000
vt 0.000000 0.500000
vt 1.000000 0.500000
vt 0.000000 0.000000
vt 1.000000 1.000000
vn 0.000000 0.000000 1.000000
vn 0.000000 0.000000 1.000000
vn 0.000000 0.000000 1.000000
vn 0.000000 0.000000 1.000000
vn 0.000000 0.000000 1.000000
vn 0.000000 0.000000 1.000000
s 1
g pPlane1
usemtl aiStandardSurface14SG
f 1/1/1 2/2/2 5/8/3 4/4/4
f 2/7/2 3/3/5 6/6/6 5/5/3
